<?xml version="1.0" encoding="UTF-8"?>
<svg xmlns="http://www.w3.org/2000/svg" version="1.1" xmlns:xlink="http://www.w3.org/1999/xlink" viewBox="0 0 336.5 78">
  <defs>
    <style>
      .cls-1, .cls-2 {
        fill: #fff;
      }

      .cls-2 {
        fill-rule: evenodd;
      }

      .cls-3 {
        fill: #1e84b5;
      }

      .cls-4 {
        fill: none;
      }

      .cls-5 {
        fill: #1e84b5;
      }

      .cls-6 {
        clip-path: url(#clippath);
      }
    </style>
    <clipPath id="clippath">
      <rect class="cls-4" width="73.5" height="69"/>
    </clipPath>
  </defs>
  <!-- Generator: Adobe Illustrator 28.7.1, SVG Export Plug-In . SVG Version: 1.2.0 Build 142)  -->
  <g>
    <g id="Layer_1">
      <g>
        <path class="cls-5" d="M90.7,24.3c2-.4,6.6-.8,10.8-.8s8.1.5,10.6,1.8c2.6,1.2,4.6,3.5,4.6,6.9s-1.8,5.8-5.8,7.2h0c3.9,1.1,7.1,4,7.1,8.6s-1.6,5.8-3.9,7.5c-2.7,1.9-7,3-14.2,3s-7.3-.3-9.1-.5V24.3ZM98.7,37.2h2.9c4.7,0,6.9-1.6,6.9-4.1s-2.2-3.8-6-3.8-3.1.1-3.8.2v7.6ZM98.7,52.4c.8.1,1.9.1,3.5.1,3.8,0,7.2-1.3,7.2-4.9s-3.3-4.7-7.6-4.7h-3v9.4Z"/>
        <path class="cls-5" d="M129.7,48.2c.3,3,3.8,4.5,7.6,4.5s5.2-.3,7.5-1.1l1.1,5.4c-2.9,1.2-6.1,1.7-9.7,1.7-9,0-14.2-5.1-14.2-12.8s3.8-13.3,13.4-13.3,12,6.9,12,12.6-.2,2.4-.3,2.9h-17.4ZM139.9,42.7c0-1.4-.8-4.8-4.8-4.8s-5.1,2.9-5.4,4.8h10.2Z"/>
        <path class="cls-5" d="M179,45.3c0,8.7-6.7,13.4-14.3,13.4s-14-4.8-14-12.8,5.5-13.3,14.5-13.3,13.8,5.3,13.8,12.7ZM159.1,45.7c0,4.2,2.2,7.3,5.8,7.3s5.7-2.6,5.7-7.4-1.7-7.3-5.6-7.3-5.8,3.6-5.8,7.4Z"/>
        <path class="cls-5" d="M210.4,21.7v28.9c0,3,0,6,.2,7.5h-7.3l-.3-3.9h-.1c-1.8,3.1-5.1,4.5-8.7,4.5-6.1,0-11.6-4.8-11.6-12.8,0-8.2,5.7-13.3,12.2-13.3s6.1,1.1,7.3,2.9h.1v-13.8h8.1ZM202.3,44.1c0-.4,0-1-.1-1.4-.5-2.3-2.5-4.1-5.2-4.1-4,0-6.1,3.1-6.1,6.9s2.3,6.7,6,6.7,4.7-1.9,5.2-4.2c.1-.6.1-1.2.1-1.8v-2.2Z"/>
        <path class="cls-5" d="M223.2,48.2c.3,3,3.8,4.5,7.6,4.5s5.2-.3,7.5-1.1l1.1,5.4c-2.9,1.2-6.1,1.7-9.7,1.7-9,0-14.2-5.1-14.2-12.8s3.8-13.3,13.4-13.3,12,6.9,12,12.6-.2,2.4-.3,2.9h-17.4ZM233.3,42.7c0-1.4-.8-4.8-4.8-4.8s-5.1,2.9-5.4,4.8h10.2Z"/>
        <path class="cls-5" d="M245.7,41.3c0-3.2,0-5.9-.2-8.1h7l.4,3.6h.2c.9-1.5,3.6-4.2,8.2-4.2s9.7,3.3,9.7,11.2v14.3h-8.1v-13.2c0-3.6-1.4-5.8-4.4-5.8s-3.8,1.7-4.4,3.1c-.2.5-.2,1.2-.2,1.8v14.1h-8.1v-16.8Z"/>
        <path class="cls-5" d="M286.2,26v7.2h5.8v6h-5.8v8.2c0,3,.6,4.6,3.2,4.6s2-.1,2.5-.3v6.1c-1,.4-3,.7-5.3.7s-4.9-1-6.2-2.4c-1.5-1.5-2.1-4-2.1-7.5v-9.6h-3.4v-6h3.4v-5.4l7.9-1.8Z"/>
        <path class="cls-5" d="M312.1,58.1l-.5-2.5h-.2c-1.7,2-4.5,3.1-7.6,3.1-5.5,0-8.5-3.8-8.5-7.6,0-6.5,5.8-9.7,15.7-9.6v-.2c0-1.1-.6-3.1-4.9-3.1-2.7,0-5.7,1-7.5,2l-1.5-5.1c1.9-1.1,5.4-2.3,10.3-2.3,8.5,0,11.6,4.8,11.6,10.9v8.5c0,2.5.1,4.8.4,6.1h-7.3ZM311.1,46.4c-4.7,0-7.9,1-7.9,3.8s1.3,2.8,3.3,2.8,3.9-1.5,4.4-3.1c.1-.4.1-.9.1-1.4v-2.2Z"/>
        <path class="cls-5" d="M325.6,21.7h8.1v36.4h-8.1V21.7Z"/>
      </g>
      <g class="cls-6">
        <g>
          <path class="cls-2" d="M1.4,15.6c-.6,2,1.7,4.6,6.1,7,1.7-4.7,5.1-8.6,10.2-9.2,7-.9,10.4,1.8,16.1.4,5.2-1.3,9.2-6.9,17.9-9.4,1-.3,2-.4,3-.4,1.9-1.7,2.6-4,2.6-4l-.3,2.1c-.6,4.3-3.9,7.6-8.2,8.2l-2.1.3,2.1.3c4.3.6,7.6,4,8.2,8.2l.3,2.1.3-2.1c.6-4.2,3.9-7.6,8.2-8.2l2.1-.3s-.8.4-1.6,1.4c1.7,4,1.6,9.2-1.4,14.9-3.4,6.4-5.9,11.4-7.7,15.7-6.7-.1-15.6-1.8-26-4.7C7.4,31.3-3.5,18.7,1.4,15.6ZM42.5,21.1h.7c1.3.3,2.4,1.3,2.6,2.7v.6c0,0,.2-.6.2-.6.2-1.3,1.2-2.4,2.6-2.6h.6c0,0-.6-.2-.6-.2-1.3-.2-2.4-1.2-2.6-2.6v-.7c0,0-.2.7-.2.7-.2,1.3-1.2,2.4-2.6,2.6h-.7Z"/>
          <path class="cls-3" d="M69.8,37.4c5.9,12-10.3,15.7-39.1,6.9-8.5-2.6-17.6-6.9-24.3-11.4.2,1.5.5,3,1,4.3,4.3,11.4,5.5,16.8,5.3,25.1-.2,9,8.1,6.8,11.4-3,1.6-4.9,4.6-6.1,6.4-6.3,4.1.2,5.4,2.8,7.7,9,3.4,9.5,13.5,9.4,14.4-1.4.2-1.8.4-3.5.7-5.1,4.2.3,8.4,0,12.2-1.1,9.2-2.9,9.7-12.3,4.3-16.8Z"/>
          <path class="cls-1" d="M65.4,10.2c-1.3-2.1-3.1-3.7-5.1-4.8-1.2-.9-2.6-2.8-2.6-3,.7,4,3.8,7.1,7.7,7.8Z"/>
        </g>
      </g>
    </g>
  </g>
</svg>