<?xml version="1.0" encoding="UTF-8"?>
<svg xmlns="http://www.w3.org/2000/svg" version="1.1" xmlns:xlink="http://www.w3.org/1999/xlink" viewBox="0 0 208.9 49">
  <defs>
    <style>
      .cls-1 {
        fill: #1e84b5;
      }

      .cls-2 {
        fill: none;
      }

      .cls-3 {
        fill: #0e384c;
        fill-rule: evenodd;
      }

      .cls-4 {
        fill: #1e84b5;
      }

      .cls-5 {
        fill: #0c2834;
      }

      .cls-6 {
        clip-path: url(#clippath);
      }
    </style>
    <clipPath id="clippath">
      <rect class="cls-2" width="45.8" height="43"/>
    </clipPath>
  </defs>
  <!-- Generator: Adobe Illustrator 28.7.1, SVG Export Plug-In . SVG Version: 1.2.0 Build 142)  -->
  <g>
    <g id="Layer_1">
      <g class="cls-6">
        <g>
          <path class="cls-3" d="M.9,9.7c-.4,1.2,1.1,2.9,3.8,4.4,1.1-3,3.2-5.3,6.4-5.8,4.3-.6,6.5,1.1,10.1.2,3.3-.8,5.7-4.3,11.2-5.9.6-.2,1.3-.3,1.9-.3,1.2-1,1.6-2.5,1.6-2.5l-.2,1.3c-.4,2.7-2.4,4.7-5.1,5.1l-1.3.2,1.3.2c2.7.4,4.7,2.5,5.1,5.1l.2,1.3.2-1.3c.4-2.6,2.4-4.7,5.1-5.1l1.3-.2s-.5.3-1,.9c1,2.5,1,5.7-.9,9.3-2.1,4-3.7,7.1-4.8,9.8-4.2,0-9.7-1.1-16.2-2.9C4.6,19.5-2.2,11.7.9,9.7ZM26.5,13.2h.4c.8.2,1.5.8,1.6,1.7v.4c0,0,.1-.4.1-.4.1-.8.8-1.5,1.6-1.6h.4c0,0-.4-.1-.4-.1-.8-.1-1.5-.8-1.6-1.6v-.4c0,0-.1.4-.1.4-.1.8-.8,1.5-1.6,1.6h-.4Z"/>
          <path class="cls-1" d="M43.5,23.3c3.7,7.5-6.4,9.8-24.4,4.3-5.3-1.6-11-4.3-15.1-7.1.1.9.3,1.9.7,2.7,2.7,7.1,3.4,10.5,3.3,15.6-.1,5.6,5,4.3,7.1-1.9,1-3.1,2.9-3.8,4-3.9,2.5.1,3.4,1.7,4.8,5.6,2.1,5.9,8.4,5.9,9-.9.1-1.1.2-2.2.4-3.2,2.6.2,5.2,0,7.6-.7,5.8-1.8,6-7.6,2.7-10.5Z"/>
          <path class="cls-5" d="M40.8,6.3c-.8-1.3-1.9-2.3-3.2-3-.8-.6-1.6-1.8-1.6-1.9.4,2.5,2.3,4.4,4.8,4.9Z"/>
        </g>
      </g>
      <g>
        <path class="cls-4" d="M54.9,13.9c1.3-.2,4.2-.5,6.8-.5s5.1.3,6.7,1.1c1.6.7,2.9,2.2,2.9,4.4s-1.2,3.7-3.7,4.5h0c2.5.7,4.5,2.5,4.5,5.4s-1,3.6-2.5,4.7c-1.7,1.2-4.4,1.9-8.9,1.9s-4.6-.2-5.7-.3V13.9ZM60,22.1h1.8c2.9,0,4.4-1,4.4-2.6s-1.4-2.4-3.8-2.4-1.9,0-2.4.2v4.8ZM60,31.6c.5,0,1.2,0,2.2,0,2.4,0,4.5-.8,4.5-3.1s-2.1-2.9-4.8-2.9h-1.9v5.9Z"/>
        <path class="cls-4" d="M79.5,29c.2,1.9,2.4,2.9,4.8,2.9s3.3-.2,4.8-.7l.7,3.4c-1.8.7-3.9,1.1-6.1,1.1-5.7,0-8.9-3.2-8.9-8.1s2.4-8.4,8.4-8.4,7.5,4.4,7.5,8-.1,1.5-.2,1.8h-11ZM85.9,25.5c0-.9-.5-3-3.1-3s-3.2,1.8-3.4,3h6.4Z"/>
        <path class="cls-4" d="M110.5,27.2c0,5.5-4.2,8.4-9,8.4s-8.8-3-8.8-8.1,3.5-8.3,9.1-8.3,8.7,3.4,8.7,8ZM98,27.4c0,2.7,1.4,4.6,3.6,4.6s3.6-1.7,3.6-4.7-1.1-4.6-3.5-4.6-3.7,2.3-3.7,4.7Z"/>
        <path class="cls-4" d="M130.3,12.3v18.2c0,1.9,0,3.8.1,4.7h-4.6l-.2-2.5h0c-1.1,2-3.2,2.9-5.5,2.9-3.8,0-7.3-3-7.3-8,0-5.2,3.6-8.4,7.7-8.4s3.8.7,4.6,1.8h0v-8.7h5.1ZM125.2,26.4c0-.3,0-.6,0-.9-.3-1.4-1.6-2.6-3.3-2.6-2.5,0-3.8,1.9-3.8,4.4s1.5,4.2,3.8,4.2,3-1.2,3.3-2.7c0-.4,0-.8,0-1.1v-1.4Z"/>
        <path class="cls-4" d="M138.3,29c.2,1.9,2.4,2.9,4.8,2.9s3.3-.2,4.8-.7l.7,3.4c-1.8.7-3.9,1.1-6.1,1.1-5.7,0-8.9-3.2-8.9-8.1s2.4-8.4,8.4-8.4,7.5,4.4,7.5,8-.1,1.5-.2,1.8h-11ZM144.7,25.5c0-.9-.5-3-3.1-3s-3.2,1.8-3.4,3h6.4Z"/>
        <path class="cls-4" d="M152.5,24.7c0-2,0-3.7-.1-5.1h4.4l.2,2.3h.1c.6-.9,2.2-2.7,5.2-2.7s6.1,2.1,6.1,7v9h-5.1v-8.3c0-2.3-.9-3.7-2.8-3.7s-2.4,1.1-2.8,2c-.1.3-.2.7-.2,1.1v8.9h-5.1v-10.6Z"/>
        <path class="cls-4" d="M178,15v4.6h3.7v3.8h-3.7v5.2c0,1.9.4,2.9,2,2.9s1.2,0,1.6-.2v3.8c-.6.2-1.9.5-3.3.5s-3.1-.6-3.9-1.5c-.9-1-1.4-2.5-1.4-4.7v-6.1h-2.2v-3.8h2.2v-3.4l4.9-1.1Z"/>
        <path class="cls-4" d="M194.3,35.2l-.3-1.6h-.1c-1.1,1.3-2.8,1.9-4.8,1.9-3.5,0-5.4-2.4-5.4-4.8,0-4.1,3.7-6.1,9.9-6.1v-.2c0-.7-.4-2-3.1-2-1.7,0-3.6.6-4.7,1.3l-.9-3.2c1.2-.7,3.4-1.5,6.5-1.5,5.4,0,7.3,3,7.3,6.8v5.3c0,1.6,0,3,.3,3.9h-4.6ZM193.7,27.9c-3,0-5,.6-5,2.4s.8,1.8,2.1,1.8,2.5-.9,2.8-2c0-.3,0-.6,0-.9v-1.4Z"/>
        <path class="cls-4" d="M202.8,12.3h5.1v22.9h-5.1V12.3Z"/>
      </g>
    </g>
  </g>
</svg>